PathFileType  4	(X/Y/Z) C:\Users\hpl\Documents\MyRepositories\mocap-processing\Data\treadmill\running\
DataRate	CameraRate	NumFrames	NumMarkers	Units	OrigDataRate	OrigDataStartFrame	OrigNumFrames
  200.0		  200.0		    10		     46		 mm	  200.0	      295	    785
Frame#	Time	r_knee			r_shank_antsup			r_ankle			r_calc			r_5meta			r_toe			L_knee			L_shank_antsup			L_ankle			L_calc			L_5meta			L_toe			r_sh2			r_sh3			r_sh4			L_sh2			L_sh3			r_thigh1			r_thigh2			r_thigh3			r_thigh4			r_thigh5			L_thigh1			L_thigh2			L_thigh3			L_thigh4			r.ASIS			r.PSIS			L.ASIS			L.PSIS			C7			R_Shoulder			L_Shoulder			Sternum			R_humerus			R_elbow_med			R_elbow_lat			R_forearm			R_wrist_radius			R_wrist_ulna			L_humerus			L_elbow_med			L_elbow_lat			L_forearm			L_wrist_radius			L_wrist_ulna			
		X1	Y1	Z1	X2	Y2	Z2	X3	Y3	Z3	X4	Y4	Z4	X5	Y5	Z5	X6	Y6	Z6	X7	Y7	Z7	X8	Y8	Z8	X9	Y9	Z9	X10	Y10	Z10	X11	Y11	Z11	X12	Y12	Z12	X13	Y13	Z13	X14	Y14	Z14	X15	Y15	Z15	X16	Y16	Z16	X17	Y17	Z17	X18	Y18	Z18	X19	Y19	Z19	X20	Y20	Z20	X21	Y21	Z21	X22	Y22	Z22	X23	Y23	Z23	X24	Y24	Z24	X25	Y25	Z25	X26	Y26	Z26	X27	Y27	Z27	X28	Y28	Z28	X29	Y29	Z29	X30	Y30	Z30	X31	Y31	Z31	X32	Y32	Z32	X33	Y33	Z33	X34	Y34	Z34	X35	Y35	Z35	X36	Y36	Z36	X37	Y37	Z37	X38	Y38	Z38	X39	Y39	Z39	X40	Y40	Z40	X41	Y41	Z41	X42	Y42	Z42	X43	Y43	Z43	X44	Y44	Z44	X45	Y45	Z45	X46	Y46	Z46	

295	1.47000	690.034	513.265	-150.572	580.147	467.230	-146.178	255.013	493.497	-177.488	260.454	568.219	-241.964	130.986	415.741	-161.572	149.482	362.047	-216.664	932.594	540.051	-451.068	974.544	422.328	-452.553	990.569	102.026	-391.681	946.241	81.575	-328.733	1149.660	41.928	-410.572	1185.921	87.980	-358.888	460.706	466.108	-154.510	576.781	539.713	-130.958	463.819	548.016	-150.708	883.547	415.345	-446.211	914.146	307.051	-415.643	834.961	701.490	-134.362	800.359	592.139	-155.687	752.643	571.354	-133.834	728.991	721.508	-97.666	699.854	611.057	-127.528	922.292	784.533	-467.452	973.732	657.399	-437.521	820.332	740.529	-499.182	870.123	617.774	-455.611	872.268	997.119	-162.822	664.022	1066.017	-215.941	842.101	1018.472	-424.191	652.462	1082.500	-329.775	766.790	1551.658	-293.449	828.190	1524.367	-109.426	781.852	1525.460	-475.828	912.370	1451.583	-315.246	774.571	1324.964	1.299	632.036	1225.717	-34.383	663.636	1254.299	49.716	818.846	1201.000	-18.967	910.110	1158.206	-72.989	897.273	1119.064	-42.975	629.245	1357.596	-567.500	499.711	1289.143	-495.256	523.514	1331.337	-581.380	640.528	1214.942	-585.687	741.574	1170.946	-538.055	700.074	1120.939	-571.373
296	1.47500	700.713	507.132	-149.542	590.477	463.596	-145.642	266.427	499.221	-176.721	272.889	574.476	-241.152	141.385	423.402	-161.231	159.512	368.985	-217.059	930.888	536.742	-451.190	969.906	417.306	-451.841	975.671	96.934	-390.068	929.225	78.094	-327.643	1132.687	39.403	-408.447	1170.113	78.197	-351.467	470.948	465.701	-154.213	589.028	536.218	-130.214	476.110	547.335	-150.048	878.797	412.308	-446.684	906.686	305.916	-415.655	840.696	698.434	-135.101	809.099	588.009	-155.661	762.056	565.565	-133.636	734.551	715.246	-96.921	707.939	604.224	-127.332	924.417	783.174	-468.573	974.154	655.162	-437.475	819.968	739.179	-496.157	869.758	615.493	-456.034	871.009	993.755	-162.320	663.016	1061.411	-215.236	840.811	1015.743	-424.344	651.457	1080.731	-329.937	767.948	1547.399	-295.031	827.500	1520.866	-109.945	783.245	1520.328	-477.667	912.901	1447.073	-315.145	770.556	1321.742	0.219	628.338	1224.352	-36.143	658.795	1253.029	47.878	813.446	1193.257	-16.935	904.844	1148.024	-69.658	890.077	1109.602	-39.585	633.282	1349.395	-569.876	503.170	1280.811	-499.167	527.789	1322.679	-585.189	645.117	1206.589	-588.192	745.857	1163.213	-539.423	704.820	1112.864	-573.026
297	1.48000	711.482	501.191	-148.510	601.222	459.791	-144.908	278.640	504.086	-176.136	285.805	579.738	-240.303	153.065	429.824	-160.524	169.907	375.231	-217.006	928.818	532.822	-451.138	964.553	411.852	-451.317	959.393	93.977	-387.385	910.271	77.097	-326.035	1111.767	40.752	-404.737	1151.482	69.507	-343.631	482.133	464.954	-154.552	601.614	532.496	-129.473	488.968	546.364	-149.107	873.375	409.332	-447.352	898.682	304.764	-415.892	846.400	695.079	-134.888	817.706	583.939	-155.460	771.735	560.097	-133.245	740.101	709.006	-96.007	716.759	597.426	-125.979	927.311	780.479	-470.107	973.966	651.714	-438.099	819.616	737.668	-493.122	869.479	611.530	-457.123	869.197	989.960	-161.284	662.105	1056.864	-214.785	839.546	1012.841	-424.616	650.445	1078.915	-330.113	768.351	1543.338	-296.380	826.835	1517.105	-110.385	785.014	1515.338	-479.617	913.431	1442.263	-315.013	766.241	1318.297	-1.142	624.274	1222.737	-37.896	653.976	1251.704	46.250	808.219	1186.413	-15.425	899.254	1137.526	-66.149	882.428	1099.862	-35.943	637.236	1340.897	-572.300	506.951	1272.386	-503.252	532.412	1313.728	-589.023	649.908	1197.841	-590.717	750.208	1155.211	-540.746	709.615	1104.641	-574.758
298	1.48500	722.482	495.494	-147.469	612.682	455.581	-143.473	291.550	508.030	-175.729	299.197	584.258	-239.513	164.231	435.139	-159.213	181.341	380.081	-216.283	927.177	528.065	-450.616	958.593	406.127	-450.495	942.383	94.648	-383.274	889.302	75.175	-325.697	1091.720	41.157	-401.410	1131.442	61.813	-337.670	493.681	463.819	-154.082	614.459	528.304	-128.875	502.231	544.981	-148.261	867.640	406.463	-447.841	890.132	303.592	-416.319	852.219	692.092	-134.522	826.686	580.087	-155.298	781.535	554.997	-132.449	745.937	702.953	-95.062	725.336	590.842	-125.639	929.331	776.540	-471.080	973.370	647.282	-438.095	819.671	735.076	-492.156	868.023	608.005	-457.436	868.049	986.362	-160.807	660.760	1052.074	-213.843	838.431	1009.807	-424.809	649.426	1077.054	-330.303	768.761	1539.057	-297.401	826.003	1513.158	-110.968	786.702	1509.925	-481.502	914.067	1437.110	-314.796	761.868	1314.681	-2.698	620.154	1221.239	-39.917	648.960	1250.156	44.540	803.146	1179.691	-13.897	893.059	1126.834	-62.356	874.292	1089.888	-32.042	641.477	1332.182	-574.897	510.792	1263.727	-507.497	537.041	1304.486	-593.067	654.961	1188.782	-593.224	755.134	1146.876	-542.025	714.792	1095.913	-576.228
299	1.49000	734.095	490.362	-146.519	624.507	451.678	-143.639	305.156	511.111	-175.144	312.923	587.656	-238.716	178.671	438.616	-158.080	193.926	383.834	-215.337	924.278	522.997	-450.900	953.935	399.915	-449.127	920.437	94.870	-376.709	866.496	69.309	-320.222	1069.727	41.233	-399.662	1108.196	56.889	-334.328	505.729	462.281	-153.949	627.825	524.100	-127.252	515.962	543.189	-147.221	863.040	403.745	-448.251	881.038	302.399	-416.901	858.040	689.294	-133.997	835.555	576.653	-154.779	791.311	550.112	-131.639	751.495	697.190	-94.293	734.201	584.497	-125.448	930.393	771.812	-471.358	971.841	642.056	-437.421	819.164	731.518	-492.318	865.953	604.075	-457.937	866.626	982.781	-160.348	658.967	1047.216	-212.989	837.128	1006.561	-424.729	647.529	1072.165	-330.192	769.177	1534.820	-298.483	824.883	1509.142	-111.433	788.632	1504.412	-483.197	914.757	1431.851	-314.525	757.324	1310.802	-4.388	616.089	1219.222	-41.633	643.969	1248.617	42.708	797.516	1172.391	-12.534	886.352	1116.037	-58.365	865.821	1079.947	-27.962	645.964	1323.168	-577.625	515.027	1254.868	-511.602	541.914	1294.911	-597.098	660.265	1179.627	-595.795	760.052	1138.304	-543.169	720.022	1087.160	-577.781
300	1.49500	745.677	485.050	-145.853	636.572	447.296	-144.159	319.272	513.125	-174.677	326.685	589.743	-237.566	192.821	441.224	-156.774	212.403	390.080	-215.526	922.089	517.669	-450.393	951.170	394.011	-446.334	896.587	93.382	-368.758	845.041	65.807	-312.880	1047.497	41.208	-397.264	1086.223	57.600	-332.136	518.380	460.455	-153.429	641.452	519.703	-126.105	529.998	541.132	-146.069	860.513	402.333	-447.719	871.400	301.185	-417.601	863.974	686.684	-133.373	844.620	573.429	-154.214	801.291	545.674	-130.619	757.256	691.564	-93.542	742.940	578.625	-125.076	930.263	766.446	-470.345	970.223	635.870	-437.255	818.522	727.521	-493.781	863.852	599.423	-457.602	865.040	979.524	-159.514	657.050	1041.741	-212.150	835.786	1003.308	-424.402	645.268	1066.582	-330.057	769.564	1530.451	-299.968	823.775	1505.173	-111.857	790.626	1498.710	-484.834	915.552	1426.259	-314.236	752.516	1306.965	-6.373	611.756	1217.229	-43.476	639.043	1247.076	41.550	791.413	1165.108	-10.768	879.261	1105.127	-54.201	856.630	1069.850	-23.610	650.723	1313.817	-580.349	519.374	1245.595	-515.709	546.958	1285.196	-601.226	665.875	1170.156	-598.258	765.088	1129.498	-544.451	725.606	1078.133	-579.042
301	1.50000	757.709	480.487	-145.289	649.833	443.516	-142.189	333.794	514.348	-174.023	341.015	591.267	-236.465	207.483	442.680	-155.379	221.896	390.848	-214.598	921.231	512.337	-448.174	949.037	388.771	-442.275	876.115	93.522	-362.846	823.005	67.759	-311.267	1025.433	41.241	-395.057	1064.645	56.691	-328.582	531.453	458.173	-153.236	655.614	515.360	-124.572	544.474	538.732	-144.789	858.990	401.575	-447.047	861.218	299.947	-418.386	869.791	684.624	-132.466	853.722	570.632	-153.408	811.383	541.868	-129.715	762.982	686.437	-93.026	752.008	573.008	-125.008	928.815	760.514	-468.134	968.905	629.569	-438.163	817.845	722.722	-494.617	861.697	594.363	-456.241	862.880	974.461	-159.014	654.213	1036.334	-211.022	834.571	999.946	-424.032	643.385	1061.597	-329.895	769.634	1525.276	-301.331	822.569	1501.199	-112.247	792.854	1492.841	-486.538	916.277	1420.557	-313.854	747.583	1302.931	-8.699	607.554	1215.061	-45.186	633.850	1245.266	39.626	784.180	1157.464	-8.814	871.771	1093.662	-48.455	847.047	1059.770	-19.232	655.551	1304.186	-582.850	523.506	1236.279	-519.781	552.446	1275.269	-605.427	671.618	1160.433	-600.701	770.369	1120.824	-545.550	731.544	1069.069	-580.261
302	1.50500	770.414	476.332	-144.833	663.379	439.448	-141.776	348.563	514.533	-173.432	355.108	591.883	-235.608	222.960	442.811	-153.916	236.658	391.316	-213.525	920.213	507.642	-446.275	945.106	383.737	-437.726	857.525	94.694	-360.428	802.121	68.175	-307.765	1003.286	41.383	-394.394	1044.099	53.347	-329.321	545.132	455.733	-153.227	669.865	510.936	-123.384	559.175	535.873	-143.463	856.944	400.792	-447.144	850.494	298.686	-419.219	875.511	682.846	-131.838	862.832	568.437	-152.195	821.484	538.074	-127.582	768.683	681.759	-92.351	761.118	568.060	-124.803	926.525	754.638	-465.767	967.651	623.226	-438.867	815.975	717.637	-494.530	858.219	590.747	-453.759	860.533	969.754	-158.610	651.937	1031.225	-211.001	833.034	996.936	-423.242	641.278	1057.024	-329.185	769.644	1520.781	-302.482	821.267	1497.297	-112.566	795.027	1487.091	-488.358	917.133	1414.748	-313.376	742.430	1299.073	-11.139	602.991	1213.008	-47.240	628.737	1243.379	37.582	777.378	1150.037	-6.664	863.597	1082.618	-43.674	837.079	1049.809	-14.705	660.745	1294.583	-585.353	528.650	1226.788	-524.473	558.081	1265.128	-609.494	677.609	1150.688	-603.126	775.889	1112.377	-546.465	737.572	1059.965	-581.282
303	1.51000	783.331	472.755	-144.490	677.367	435.691	-141.518	363.582	513.928	-172.803	369.068	591.727	-234.598	238.972	441.593	-152.326	252.374	389.837	-210.825	919.023	503.521	-443.804	941.339	382.005	-432.694	837.057	96.104	-358.788	780.490	68.782	-306.115	981.126	41.419	-394.002	1021.452	53.957	-329.205	559.371	453.095	-152.660	684.335	506.807	-121.421	573.844	533.053	-142.373	853.348	400.207	-447.764	839.226	297.398	-420.065	881.247	681.753	-131.465	872.379	567.328	-151.445	831.820	535.668	-126.676	774.390	677.730	-91.913	770.614	563.977	-124.177	922.043	748.676	-462.383	963.415	616.684	-438.399	812.644	712.897	-491.927	854.543	586.158	-450.653	858.032	965.744	-158.218	649.437	1027.035	-211.352	831.153	994.255	-422.185	638.984	1053.119	-328.127	769.368	1516.239	-303.853	820.146	1493.425	-112.897	797.373	1481.301	-490.112	918.003	1408.886	-312.839	737.343	1295.156	-13.928	598.662	1210.682	-49.151	623.325	1241.540	35.461	770.370	1142.540	-4.531	854.808	1071.638	-38.697	826.497	1040.000	-10.085	666.113	1284.858	-587.599	533.691	1217.200	-528.672	564.125	1255.040	-613.641	684.043	1140.998	-605.511	781.673	1103.656	-547.276	744.104	1051.121	-582.301
304	1.51500	797.029	469.964	-143.162	691.890	432.297	-141.582	378.669	512.476	-171.933	382.785	591.225	-233.916	255.132	438.683	-150.931	268.417	387.488	-210.086	917.519	500.144	-441.208	935.218	381.826	-428.810	816.340	97.069	-357.860	759.209	69.766	-306.089	959.331	41.509	-393.678	1000.089	53.559	-327.748	573.914	450.225	-152.743	699.071	502.956	-120.216	588.879	529.934	-140.624	847.548	401.447	-446.522	827.417	296.084	-420.890	886.838	681.486	-130.723	881.861	566.969	-150.486	842.316	534.141	-125.724	780.187	674.479	-91.504	780.358	560.533	-123.554	919.057	743.787	-459.696	959.994	611.604	-436.150	809.643	709.133	-489.101	849.989	582.463	-446.505	855.241	961.921	-157.883	646.918	1024.250	-211.974	829.061	991.698	-421.200	636.852	1050.531	-327.133	769.268	1512.290	-304.746	818.948	1489.784	-113.007	799.771	1475.787	-491.882	918.815	1403.167	-312.093	732.176	1291.345	-16.454	594.297	1208.630	-51.020	618.153	1239.831	33.351	762.960	1135.074	-2.419	845.627	1060.857	-33.123	815.593	1030.551	-5.427	671.686	1275.170	-589.549	539.122	1207.533	-533.124	570.485	1244.902	-617.698	690.858	1131.523	-607.585	788.155	1095.535	-547.663	750.973	1042.390	-582.951
